{"title":"Fu gui bi ren III aka It's a Mad, Mad, Mad World 3","uid":14159735,"size":580770848,"categoryP":"video","categoryS":"movies","magnet":"?xt=urn:btih:1f779f40583f66d7bce35f49dd715ef6bde76b91&amp;dn=Fu+gui+bi+ren+III+aka+It%27s+a+Mad%2C+Mad%2C+Mad+World+3&amp;tr=udp%3A%2F%2Ftracker.leechers-paradise.org%3A6969&amp;tr=udp%3A%2F%2Fzer0day.ch%3A1337&amp;tr=udp%3A%2F%2Fopen.demonii.com%3A1337&amp;tr=udp%3A%2F%2Ftracker.coppersurfer.tk%3A6969&amp;tr=udp%3A%2F%2Fexodus.desync.com%3A6969","seeders":0,"leechers":1,"uploader":null,"files":1,"time":1459704810,"description":"The Biu Family collects their lottery winnings in Canada and returns to Hong Kong to start a new life together, minus the second daughter due to a family quarrel of her involvement with her boyfriend. After Mrs. Biu shows off her money to her old friends at her bank, she loses it all in a robbery. Now, void of their new found wealth, the Biu Family must start over from scratch again.\r\n \nhttps://www.themoviedb.org/movie/154359-fu-gui-zai-san-po-ren\r\n\r\n\r\nFormat/Info                              : Audio Video Interleave\r\nFile size                                : 554 MiB\r\nDuration                                 : 1h 30mn\r\nOverall bit rate mode                    : Variable\r\nOverall bit rate                         : 851 Kbps\r\nWriting application                      : MEncoder 1.0rc1-3.4.2\r\nWriting library                          : MPlayer\r\n\r\nVideo\r\nID                                       : 0\r\nFormat                                   : AVC\r\nFormat/Info                              : Advanced Video Codec\r\nFormat profile                           :   \r\nFormat settings, CABAC                   : Yes\r\nFormat settings, ReFrames                : 1 frame\r\nCodec ID                                 : h264\r\nDuration                                 : 1h 30mn\r\nBit rate                                 : 700 Kbps\r\nWidth                                    : 704 pixels\r\nHeight                                   : 384 pixels\r\nDisplay aspect ratio                     : 1.85:1\r\nFrame rate                               : 23.976 (24000/1001) fps\r\nColor space                              : YUV\r\nChroma subsampling                       : 4:2:0\r\nBit depth                                : 8 bits\r\nScan type                                : Progressive\r\nBits/(Pixel*Frame)                       : 0.108\r\nStream size                              : 459 MiB (83%)\r\nWriting library                          : x264 core 54\r\nEncoding settings                        : cabac=1 / ref=1 / deblock=1:0:0 / analyse=0x1:0x111 / me=hex / subme=5 / brdo=0 / mixed_ref=0 / me_range=16 / chroma_me=1 / trellis=0 / 8x8dct=0 / cqm=0 / deadzone=21,11 / chroma_qp_offset=0 / slices=1 / nr=0 / decimate=1 / mbaff=0 / bframes=0 / keyint=250 / keyint_min=25 / scenecut=40 / rc=abr / bitrate=700 / ratetol=1.0 / rceq='blurCplx^(1-qComp)' / qcomp=0.60 / qpmin=10 / qpmax=51 / qpstep=4 / ip_ratio=1.40\r\n\r\nAudio\r\nID                                       : 1\r\nFormat                                   : MPEG Audio\r\nFormat version                           : Version 1\r\nFormat profile                           : Layer 3\r\nMode                                     : Joint stereo\r\nMode extension                           : MS Stereo\r\nCodec ID                                 : 55\r\nCodec ID/Hint                            : MP3\r\nDuration                                 : 1h 30mn\r\nBit rate mode                            : Variable\r\nBit rate                                 : 133 Kbps\r\nChannel(s)                               : 2 channels\r\nSampling rate                            : 44.1 KHz\r\nCompression mode                         : Lossy\r\nStream size                              : 86.8 MiB (16%)\r\nAlignment                                : Aligned on interleaves\r\nInterleave, duration                     : 26 ms (0.63 video frame)\r\nInterleave, preload duration             : 515 ms","torrent":{"xt":"urn:btih:1f779f40583f66d7bce35f49dd715ef6bde76b91","amp;dn":"Fu+gui+bi+ren+III+aka+It%27s+a+Mad%2C+Mad%2C+Mad+World+3","amp;tr":["udp%3A%2F%2Ftracker.leechers-paradise.org%3A6969","udp%3A%2F%2Fzer0day.ch%3A1337","udp%3A%2F%2Fopen.demonii.com%3A1337","udp%3A%2F%2Ftracker.coppersurfer.tk%3A6969","udp%3A%2F%2Fexodus.desync.com%3A6969"],"infoHash":"1f779f40583f66d7bce35f49dd715ef6bde76b91","infoHashBuffer":{"type":"Buffer","data":[31,119,159,64,88,63,102,215,188,227,95,73,221,113,94,246,189,231,107,145]},"announce":[],"urlList":[]}}